<svg xmlns="http://www.w3.org/2000/svg" xmlns:xlink="http://www.w3.org/1999/xlink" width="17px" height="15px" viewBox="0 0 16 15" version="1.1"><g><path d="M 10.589844 4.402344 L 14.582031 5.023438 C 14.910156 5.074219 15.1875 5.320312 15.292969 5.65625 C 15.398438 5.996094 15.3125 6.367188 15.074219 6.617188 L 12.179688 9.613281 L 12.863281 13.90625 C 12.917969 14.257812 12.785156 14.617188 12.503906 14.824219 C 12.230469 15.03125 11.867188 15.058594 11.570312 14.890625 L 8.003906 12.882812 L 4.4375 14.890625 C 4.140625 15.058594 3.773438 15.03125 3.5 14.824219 C 3.226562 14.617188 3.085938 14.257812 3.144531 13.90625 L 3.828125 9.613281 L 0.933594 6.617188 C 0.695312 6.367188 0.609375 5.996094 0.714844 5.65625 C 0.816406 5.320312 1.09375 5.074219 1.429688 5.023438 L 5.417969 4.402344 L 7.207031 0.527344 C 7.351562 0.203125 7.664062 0 8.003906 0 C 8.34375 0 8.65625 0.203125 8.804688 0.527344 Z M 10.589844 4.402344 "/></g></svg>
